<svg xmlns="http://www.w3.org/2000/svg" viewBox="0 0 344.72 83"><defs><style>.cls-1{font-size:47.44px;font-family:Inter28pt-Bold, "Inter 28pt";font-weight:700;}.cls-1,.cls-13,.cls-6{fill:#fff;}.cls-2{letter-spacing:-0.01em;}.cls-3{letter-spacing:-0.02em;}.cls-4{letter-spacing:-0.02em;}.cls-5,.cls-6{font-family:Inter28pt-Light, "Inter 28pt";font-weight:300;}.cls-5{letter-spacing:0em;}.cls-6{font-size:17.76px;}.cls-7{letter-spacing:0.02em;}.cls-8{letter-spacing:-0.01em;}.cls-9{letter-spacing:-0.01em;}.cls-10{letter-spacing:0em;}.cls-11{letter-spacing:-0.03em;}.cls-12{letter-spacing:-0.01em;}</style></defs><g id="Layer_2" data-name="Layer 2"><g id="Layer_1-2" data-name="Layer 1"><text class="cls-1" transform="translate(87.05 49.7)">B<tspan class="cls-2" x="30.76" y="0">r</tspan><tspan class="cls-3" x="48.39" y="0">a</tspan><tspan class="cls-4" x="73.91" y="0">v</tspan><tspan x="99.81" y="0">en</tspan><tspan class="cls-5" x="154.96" y="0">Labs</tspan></text><text class="cls-6" transform="translate(89.35 73.94)">Sma<tspan class="cls-7" x="34.75" y="0">r</tspan><tspan class="cls-8" x="40.71" y="0">t</tspan><tspan x="45.64" y="0">er S</tspan><tspan class="cls-9" x="75.92" y="0">y</tspan><tspan class="cls-10" x="84.96" y="0">s</tspan><tspan class="cls-8" x="93.51" y="0">t</tspan><tspan x="98.44" y="0">ems. Bolder </tspan><tspan class="cls-11" x="194.02" y="0">F</tspan><tspan x="203.3" y="0">utu</tspan><tspan class="cls-12" x="227.93" y="0">r</tspan><tspan x="233.3" y="0">es.</tspan></text><polygon class="cls-13" points="15 43.03 0 25.89 0 0.18 38.25 44.82 0 82.5 0 61.39 15 43.03"/><polygon class="cls-13" points="23.12 15.04 10.35 0 51.05 0 72.78 26.01 56.56 42.84 71.06 58.66 49.85 83 9.57 83 22.76 67.42 42.24 67.6 49.97 59.81 41.64 49.56 47.51 43.09 41.18 36.13 50.81 24.98 42.24 14.8 23.12 15.04"/></g></g></svg>